<svg width="60" height="60" viewBox="0 0 60 60" fill="none" xmlns="http://www.w3.org/2000/svg">
<rect x="0.25" y="0.25" width="59.5" height="59.5" rx="3.75" fill="white" stroke="#23385E" stroke-width="0.5"/>
<path d="M43.7337 21.0946H35.8085V19.3771C35.8085 17.614 34.6292 16.1797 33.1804 16.1797H27.495C26.0458 16.1797 24.8669 17.614 24.8669 19.3771V21.0946H16.9404C15.0342 21.0946 13.4832 22.6453 13.4832 24.5519V39.803C13.4832 41.7092 15.0338 43.2602 16.9404 43.2602H43.7337C45.64 43.2602 47.191 41.7096 47.191 39.803V24.5519C47.191 22.6453 45.64 21.0946 43.7337 21.0946ZM26.0739 19.3771C26.0739 18.298 26.7245 17.3867 27.495 17.3867H33.1804C33.9509 17.3867 34.6015 18.298 34.6015 19.3771V21.0946H26.0739V19.3771ZM45.984 39.803C45.984 41.0438 44.9745 42.0532 43.7337 42.0532H16.9404C15.6996 42.0532 14.6902 41.0438 14.6902 39.803V24.5519C14.6902 23.3111 15.6996 22.3017 16.9404 22.3017H43.7337C44.9745 22.3017 45.984 23.3111 45.984 24.5519V39.803Z" fill="#E66A1B"/>
<path d="M23.4853 32.9893C23.1518 32.9893 22.8818 33.2596 22.8818 33.5928V38.7065C22.8818 39.0396 23.1518 39.31 23.4853 39.31C23.8189 39.31 24.0888 39.0396 24.0888 38.7065V33.5928C24.0888 33.2596 23.8189 32.9893 23.4853 32.9893Z" fill="#E66A1B"/>
<path d="M27.6506 31.04C27.3171 31.04 27.0471 31.3104 27.0471 31.6435V38.7074C27.0471 39.0405 27.3171 39.3109 27.6506 39.3109C27.9842 39.3109 28.2541 39.0405 28.2541 38.7074V31.6435C28.2541 31.3104 27.9842 31.04 27.6506 31.04Z" fill="#E66A1B"/>
<path d="M32.1178 29.2139C31.7847 29.2139 31.5143 29.4838 31.5143 29.8174V38.7062C31.5143 39.0394 31.7847 39.3097 32.1178 39.3097C32.4509 39.3097 32.7213 39.0394 32.7213 38.7062V29.8174C32.7213 29.4838 32.4509 29.2139 32.1178 29.2139Z" fill="#E66A1B"/>
<path d="M36.7873 27.1289C36.4542 27.1289 36.1838 27.3989 36.1838 27.7324V38.7066C36.1838 39.0397 36.4542 39.3101 36.7873 39.3101C37.1205 39.3101 37.3909 39.0397 37.3909 38.7066V27.7324C37.3909 27.3989 37.1209 27.1289 36.7873 27.1289Z" fill="#E66A1B"/>
</svg>
