<svg width="60" height="60" viewBox="0 0 60 60" fill="none" xmlns="http://www.w3.org/2000/svg">
<rect x="0.25" y="0.25" width="59.5" height="59.5" rx="3.75" fill="white" stroke="#152A54" stroke-width="0.5"/>
<path d="M32.3681 41.6634L33.3051 44.8161C33.0533 45.1092 32.8953 45.4833 32.8953 45.8968C32.8953 46.8232 33.6587 47.5767 34.597 47.5767C35.4291 47.5767 36.1193 46.9781 36.2615 46.1932H39.5474C39.6442 47.029 40.3558 47.6827 41.2268 47.6827C42.1644 47.6827 42.9271 46.9293 42.9271 46.0032C42.9271 45.0758 42.1644 44.321 41.2268 44.321C40.5896 44.321 40.0401 44.6743 39.7494 45.1895H36.1288C35.8585 44.6167 35.2758 44.2166 34.597 44.2166C34.4596 44.2166 34.328 44.237 34.2001 44.2674L33.654 42.43H42.1377C42.3823 42.43 42.5918 42.258 42.6368 42.0204L44.1723 33.89C44.2001 33.7434 44.1601 33.5919 44.064 33.4775C43.9676 33.3624 43.8245 33.2961 43.6736 33.2961H30.6069L30.0486 31.6453C29.9792 31.4409 29.7857 31.3027 29.5674 31.3027H27.4888C27.2083 31.3027 26.9812 31.5272 26.9812 31.8046C26.9812 32.082 27.2083 32.3065 27.4888 32.3065H29.202L32.3681 41.6634ZM43.0625 34.2998L41.7161 41.4266H33.3582L33.3369 41.3637L33.2936 41.2185C33.2851 41.1897 33.2733 41.1629 33.2601 41.1372L30.9463 34.2998H43.0625ZM41.2268 45.3253C41.6047 45.3253 41.912 45.6298 41.912 46.0039C41.912 46.3762 41.6047 46.6797 41.2268 46.6797C40.8498 46.6797 40.5429 46.3766 40.5429 46.0039C40.5429 45.6298 40.8495 45.3253 41.2268 45.3253ZM35.2765 45.8971C35.2765 46.2698 34.9716 46.5733 34.5967 46.5733C34.218 46.5733 33.9101 46.2698 33.9101 45.8971C33.9101 45.5244 34.218 45.221 34.5967 45.221C34.9712 45.2206 35.2765 45.5241 35.2765 45.8971Z" fill="#E66A1B"/>
<path d="M27.3754 38.991H16.5809V23.6057H40.4299V30.803C40.4299 31.0804 40.6573 31.3049 40.9375 31.3049C41.2176 31.3049 41.445 31.0804 41.445 30.803V17.6386C41.445 17.3612 41.2176 17.1367 40.9375 17.1367H16.0734C15.7928 17.1367 15.5658 17.3612 15.5658 17.6386V39.4929C15.5658 39.7699 15.7928 39.9947 16.0734 39.9947H27.3754C27.6559 39.9947 27.883 39.7699 27.883 39.4929C27.883 39.2158 27.6559 38.991 27.3754 38.991ZM40.4299 18.1404V22.602H16.5809V18.1404H40.4299Z" fill="#E66A1B"/>
<path d="M22.8751 20.7664H24.9006C25.1811 20.7664 25.4081 20.5419 25.4081 20.2646C25.4081 19.9872 25.1811 19.7627 24.9006 19.7627H22.8751C22.5945 19.7627 22.3675 19.9872 22.3675 20.2646C22.3675 20.5419 22.5945 20.7664 22.8751 20.7664Z" fill="#E66A1B"/>
<path d="M18.7096 20.7664H20.7352C21.0157 20.7664 21.2427 20.5419 21.2427 20.2646C21.2427 19.9872 21.0157 19.7627 20.7352 19.7627H18.7096C18.4291 19.7627 18.2021 19.9872 18.2021 20.2646C18.2021 20.5419 18.4291 20.7664 18.7096 20.7664Z" fill="#E66A1B"/>
</svg>
