<?xml version="1.0" encoding="utf-8"?>
<!-- Generator: Adobe Illustrator 25.2.0, SVG Export Plug-In . SVG Version: 6.00 Build 0)  -->
<svg version="1.1" id="Слой_1" xmlns="http://www.w3.org/2000/svg" xmlns:xlink="http://www.w3.org/1999/xlink" x="0px" y="0px"
	 viewBox="0 0 48 48" style="enable-background:new 0 0 48 48;" xml:space="preserve">
<style type="text/css">
	.st0{fill:none;stroke:#000000;stroke-linecap:round;stroke-linejoin:round;}
	.st1{fill:#6F7172;stroke:#000000;stroke-miterlimit:10;}
</style>
<path class="st0" d="M5.5,19.6v18.9c0,1.1,0.4,2.1,1.2,2.8c0.8,0.8,1.8,1.2,2.8,1.2h29c1.1,0,2.1-0.4,2.8-1.2
	c0.8-0.8,1.2-1.8,1.2-2.8v-29c0-1.1-0.4-2.1-1.2-2.8c-0.8-0.8-1.8-1.2-2.8-1.2h-29c-1.1,0-2.1,0.4-2.8,1.2C5.9,7.4,5.5,8.4,5.5,9.5
	V19.6z"/>
<path class="st0" d="M15.1,24.2c0-3.2,2.6-5.7,5.7-5.7c3.2,0,5.7,2.6,5.7,5.7 M26.6,24.2v9.1 M26.6,24.2c0-3.2,2.6-5.7,5.7-5.7
	s5.7,2.6,5.7,5.7v9.1 M15.1,18.5v14.8"/>
<path class="st1" d="M11.8,16.2c0.4,0,0.8-0.3,0.8-0.8s-0.3-0.8-0.8-0.8s-0.8,0.3-0.8,0.8S11.4,16.2,11.8,16.2z"/>
<path class="st0" d="M11.8,18.5v14.8"/>
</svg>
