<svg width="60" height="60" viewBox="0 0 60 60" fill="none" xmlns="http://www.w3.org/2000/svg">
<rect x="0.25" y="0.25" width="59.5" height="59.5" rx="3.75" fill="white" stroke="#152A54" stroke-width="0.5"/>
<path d="M46.0824 23.0153V23.0138C46.0824 23.0123 46.0821 23.0112 46.0821 23.0098C46.0817 22.9697 46.0761 22.9297 46.0672 22.8904C46.0643 22.8778 46.0602 22.8659 46.0565 22.8537C46.0483 22.8266 46.038 22.8 46.0254 22.7736C46.0187 22.7599 46.0116 22.7462 46.0039 22.7332C45.9987 22.7243 45.995 22.7143 45.9894 22.7058C45.9794 22.691 45.9672 22.6787 45.956 22.665C45.9471 22.6539 45.939 22.6428 45.9293 22.6324C45.9008 22.602 45.87 22.575 45.8363 22.5523C45.8359 22.552 45.8356 22.5516 45.8352 22.5512L45.8348 22.5509C45.8337 22.5501 45.8326 22.5494 45.8319 22.5486L32.3505 13.5765C32.1637 13.4524 31.9209 13.4524 31.7341 13.5765L26.9888 16.7402L26.9884 16.7406L22.6282 19.647C22.5685 19.6733 22.5125 19.7093 22.4644 19.7564L15.0832 24.6774C15.0476 24.7008 15.015 24.7297 14.9846 24.7615C14.9749 24.7719 14.9668 24.783 14.9579 24.7942C14.9468 24.8079 14.9345 24.8197 14.9245 24.8349C14.9186 24.8435 14.9153 24.8531 14.9101 24.862C14.9023 24.8753 14.8949 24.8891 14.8882 24.9035C14.876 24.9291 14.866 24.9554 14.8578 24.9821C14.8537 24.9951 14.8496 25.0073 14.8467 25.0203C14.8382 25.0581 14.833 25.0963 14.8326 25.1348C14.8326 25.1378 14.8315 25.1404 14.8315 25.143V25.1459V37.6606C14.8315 37.8466 14.9245 38.0205 15.0795 38.1235L28.5634 47.0982C28.5652 47.0993 28.5671 47.0997 28.5689 47.1008C28.6079 47.126 28.6505 47.1449 28.695 47.1601C28.7061 47.1638 28.7168 47.1675 28.728 47.1705C28.7739 47.1827 28.8214 47.1913 28.871 47.1913C28.9207 47.1913 28.9682 47.1827 29.0141 47.1701C29.0252 47.1672 29.0364 47.1635 29.0471 47.1598C29.0927 47.1446 29.1364 47.1253 29.1757 47.0993C29.1768 47.0986 29.178 47.0982 29.1791 47.0979L29.1813 47.0964C29.1817 47.0964 29.1817 47.096 29.182 47.096L45.8341 35.9944C45.9887 35.8913 46.0817 35.7179 46.0817 35.5318V23.0179C46.0824 23.0172 46.0824 23.0161 46.0824 23.0153ZM32.0429 14.7071L44.5234 23.0142L40.5761 25.646L28.2813 17.215L32.0429 14.7071ZM28.8714 33.4494L16.3902 25.1422L22.8565 20.8313L35.1517 29.2622L28.8714 33.4494ZM27.2842 17.8797L39.579 26.3106L36.1484 28.5976L23.8533 20.1667L27.2842 17.8797ZM36.6885 29.574L39.9893 27.3733L39.8718 32.6124L36.6885 34.7007V29.574ZM15.9435 26.1805L28.3154 34.4153V45.597L15.9435 37.3625V26.1805ZM29.4274 45.5963V34.4149L35.5765 30.3153V35.7305C35.5765 35.9347 35.6888 36.1226 35.8682 36.2198C35.9512 36.2642 36.0421 36.2865 36.1325 36.2865C36.2389 36.2865 36.3453 36.2561 36.4376 36.1953L40.7262 33.3815C40.879 33.2811 40.9727 33.112 40.9772 32.9289L41.1184 26.6205L44.9704 24.0525V35.2341L29.4274 45.5963Z" fill="#E66A1B"/>
<path d="M27.2983 37.1776C27.4781 37.1776 27.6545 37.0908 27.7616 36.9296C27.9318 36.6742 27.8625 36.3287 27.6071 36.1586L21.2367 31.9185C20.9809 31.7483 20.6355 31.8173 20.4657 32.0734C20.2956 32.3288 20.3649 32.6743 20.6203 32.8444L26.991 37.0845C27.0855 37.1476 27.1927 37.1776 27.2983 37.1776Z" fill="#E66A1B"/>
<path d="M27.6071 39.0586L23.9589 36.6303C23.7032 36.4602 23.3577 36.5295 23.1879 36.7852C23.0178 37.0406 23.0871 37.3861 23.3425 37.5562L26.9907 39.9845C27.0852 40.0475 27.1923 40.0775 27.2983 40.0775C27.4781 40.0775 27.6545 39.9908 27.7617 39.8296C27.9318 39.5738 27.8625 39.2287 27.6071 39.0586Z" fill="#E66A1B"/>
</svg>
