<svg width="116" height="117" viewBox="0 0 116 117" fill="none" xmlns="http://www.w3.org/2000/svg">
<rect x="0.579228" y="17.7704" width="99" height="99" rx="3.5" transform="rotate(-10 0.579228 17.7704)" stroke="#152A54"/>
<path d="M48.5797 63.2965C46.6739 62.9691 44.7397 62.8837 42.7771 63.0402C40.8982 63.1345 38.9775 63.26 37.0149 63.4165C38.8099 63.3843 40.6468 63.321 42.5256 63.2267C44.4964 63.1161 46.4008 63.3016 48.239 63.783C48.0876 63.9993 47.9322 64.1925 47.7726 64.3628C47.6131 64.5331 47.4414 64.6344 47.2576 64.6669C46.6142 64.7803 45.9816 64.8208 45.3599 64.7882C44.73 64.7098 44.0704 64.7313 43.381 64.8529L43.2352 64.0256C43.0135 64.1121 42.6958 64.1918 42.2822 64.2647C41.1333 64.4673 39.9789 64.505 38.8192 64.3778C37.6595 64.2506 36.5052 64.2882 35.3562 64.4908C34.7588 64.5962 34.1965 64.7664 33.6693 65.0015L33.7179 65.2773C35.2048 65.1099 36.7268 65.0074 38.2839 64.9697C39.8789 64.878 41.509 64.8512 43.1742 64.8893C41.663 64.9188 40.041 64.9916 38.3082 65.1076C36.6213 65.2155 35.0425 65.3991 33.5719 65.6584C32.9744 65.7638 32.404 65.888 31.8606 66.0312C31.3551 66.1204 30.8536 66.2325 30.3562 66.3676C30.5263 67.3327 30.7479 68.4546 31.0207 69.7333C31.2936 71.0121 31.6083 72.2597 31.965 73.4762C32.3136 74.6468 32.6608 75.6755 33.0067 76.5622C33.3526 77.449 33.6878 78.0059 34.0121 78.233L34.8513 79.3645C35.7027 80.9677 37.6909 81.4937 40.816 80.9427C41.5054 80.8211 42.3164 80.5834 43.2491 80.2294C44.1818 79.8754 45.1105 79.4984 46.0351 79.0984C46.9975 78.6444 47.8991 78.2485 48.7399 77.9107C49.6266 77.5648 50.3917 77.3351 51.0351 77.2216C51.6785 77.1082 52.0624 77.1353 52.1867 77.3029C52.3111 77.4705 52.4016 77.7152 52.4583 78.0369C50.5686 78.607 48.7681 79.2799 47.0568 80.0555C45.5671 80.7447 44.1073 81.3338 42.6771 81.8229C44.1073 81.3338 45.5523 80.7947 47.0121 80.2056C48.7316 79.4759 50.4902 78.8341 52.288 78.2802C52.2447 78.5721 52.2311 78.7641 52.2473 78.856C52.296 79.1317 52.4514 79.3412 52.7136 79.4846L53.6544 79.1765C53.922 79.0819 54.1937 79.0103 54.4695 78.9617C54.7371 78.8671 54.9777 78.7536 55.1913 78.6212C56.059 78.7051 56.6781 78.8566 57.0484 79.0756C57.4647 79.2865 57.7012 79.5528 57.7579 79.8745C57.8633 80.472 57.6375 80.9383 57.0805 81.2734C56.5696 81.6004 56.1059 82.0613 55.6895 82.656L55.4137 82.7046C54.081 82.9396 52.8144 83.2814 51.6141 83.73C50.4056 84.1326 49.2012 84.5582 48.0009 85.0068C46.8465 85.4473 45.6462 85.8959 44.3999 86.3526C43.1914 86.7552 41.9208 87.074 40.5881 87.309L39.6229 87.4792L39.2093 87.5521C40.0987 87.4901 41.049 87.3699 42.06 87.1916C43.3468 86.9647 44.5296 86.6851 45.6083 86.3527C46.7329 86.0123 47.8075 85.6569 48.8321 85.2867C49.8567 84.9165 50.8395 84.5774 51.7803 84.2693C52.767 83.9532 53.7659 83.706 54.777 83.5277C54.1065 84.025 53.2752 84.5507 52.283 85.1047C51.2827 85.6128 50.1594 86.0952 48.9131 86.5519C47.6749 87.0545 46.3786 87.4963 45.0241 87.8773C43.6778 88.3043 42.3383 88.6352 41.0055 88.8702C40.0863 89.0323 39.1821 89.1444 38.2927 89.2064C37.4033 89.2685 36.4085 89.1359 35.3082 88.8086L35.1056 88.0625C34.4217 87.9461 33.6594 87.6541 32.8187 87.1863C32.0159 86.6644 31.255 86.1115 30.536 85.5275C29.817 84.9434 29.198 84.3892 28.679 83.8647C28.1601 83.3401 27.8844 82.986 27.852 82.8021L27.5357 82.2182C26.9682 81.4179 26.4533 80.5136 25.9912 79.5052C25.575 78.4887 25.2048 77.464 24.8805 76.4313C24.5482 75.3527 24.2428 74.2929 23.9645 73.2521C23.6863 72.2113 23.4431 71.2353 23.2351 70.3243C22.8757 68.8239 22.5394 67.3194 22.226 65.8109C21.9045 64.2565 21.606 62.698 21.3305 61.1354C21.055 59.5728 20.7794 58.0103 20.5039 56.4477C20.2663 54.8311 20.0056 53.2185 19.722 51.61L19.5152 51.6465C19.5933 53.4334 19.7512 55.1352 19.9889 56.7518C20.2725 58.3603 20.5562 59.9688 20.8398 61.5773L21.3138 64.2659C21.8811 67.4829 22.6335 70.8094 23.5711 74.2455C24.5546 77.6735 26.0504 80.9163 28.0586 83.9741C26.6855 82.3681 25.7072 80.7162 25.1235 79.0184C24.5317 77.2747 23.9872 75.6648 23.49 74.1887C22.8658 72.2612 22.3227 70.3904 21.8607 68.5764C21.4446 66.7543 21.0664 64.8781 20.726 62.9479L20.4708 61.5002C20.0008 58.8347 19.5916 56.111 19.2433 53.3293C18.8949 50.5475 18.794 47.5562 18.9404 44.3555C18.6646 44.4041 18.5025 44.2906 18.4538 44.0148C18.4052 43.7391 18.4742 43.3241 18.6608 42.77C18.8934 42.2077 19.1989 41.6563 19.5775 41.1157C19.9479 40.5291 20.3805 40.0263 20.8753 39.6074C21.4079 39.1344 21.95 38.8493 22.5014 38.752L38.9083 35.859C40.6655 35.8809 42.3686 35.8649 44.0176 35.8111C45.7045 35.7032 47.4523 35.5372 49.2608 35.3131L49.4715 36.9108C49.5201 37.1865 49.4227 37.4406 49.1794 37.6731C48.9739 37.8514 48.4346 38.0176 47.5614 38.1716C47.2856 38.2202 46.9409 38.281 46.5273 38.3539C46.1516 38.3728 45.7298 38.3998 45.2622 38.4348L45.3716 39.0553C47.3288 39.1366 48.8885 39.3829 50.0509 39.7939C51.2592 40.1969 51.912 40.6741 52.0093 41.2256C52.1227 41.869 51.5712 42.3691 50.3546 42.7257C49.184 43.0743 47.5877 43.4269 45.5655 43.7834C42.9919 44.2372 40.2344 44.7234 37.2932 45.2421C34.3897 45.7066 31.562 46.0631 28.81 46.3114L27.638 46.518C27.7162 48.305 27.8714 50.1257 28.1036 51.9802C28.3358 53.8347 28.5991 55.7311 28.8935 57.6694C29.6289 57.5398 30.3371 57.3912 31.0184 57.2237C31.7375 57.0021 32.4877 56.8224 33.269 56.6847C33.9124 56.5712 34.6599 56.5105 35.5114 56.5025C36.4008 56.4405 37.3213 56.4203 38.2729 56.4421C39.2704 56.4557 40.2531 56.5194 41.2209 56.6331C42.2265 56.6927 43.1442 56.7915 43.9741 56.9295C44.1201 56.9511 44.285 56.9457 44.4689 56.9133L45.6408 56.7067C46.2382 56.6013 46.6451 56.6244 46.8613 56.7758C47.1235 56.9191 47.3032 57.2665 47.4005 57.818C46.6192 57.9558 45.8758 58.0395 45.1702 58.0691C44.4646 58.0987 43.782 58.1243 43.1224 58.1459C43.8064 58.2622 44.5052 58.3285 45.2188 58.3448C45.9244 58.3152 46.6759 58.2775 47.4734 58.2316C47.422 58.4776 47.3896 58.6966 47.376 58.8885C47.4084 59.0723 47.4368 59.2332 47.4611 59.3711C47.9369 59.382 48.2761 59.5591 48.4788 59.9024C48.7194 60.1917 48.8761 60.5432 48.9491 60.9568C49.0544 61.5542 49.0016 62.0611 48.7907 62.4774C48.6176 62.8396 48.5473 63.1126 48.5797 63.2965ZM25.6876 75.365C26.0659 76.4355 26.4834 77.594 26.9401 78.8403C27.4347 80.0325 28.0441 81.2045 28.7684 82.3562C29.5306 83.4539 30.4645 84.4502 31.57 85.3451C32.4593 86.0887 33.5541 86.6538 34.8543 87.0406C33.3459 86.5484 32.0417 85.7358 30.9416 84.603C29.655 83.2187 28.5428 81.6141 27.605 79.7892C26.7132 77.9563 25.9389 75.9841 25.2823 73.8727C24.6717 71.7532 24.1232 69.7175 23.6369 67.7656C23.9016 68.9984 24.1934 70.2501 24.5122 71.5207C24.831 72.7913 25.2228 74.0727 25.6876 75.365ZM40.0974 58.3239C40.903 58.324 41.7505 58.293 42.6399 58.2309C41.7721 58.147 40.9625 58.1239 40.2109 58.1617C39.4513 58.1535 38.6876 58.1223 37.9199 58.0681C38.566 58.2385 39.2918 58.3237 40.0974 58.3239ZM33.7755 88.5813C33.1294 88.4109 32.5442 88.1824 32.0198 87.8958C31.6495 87.6768 31.3021 87.4537 30.9777 87.2266C31.3021 87.4537 31.6684 87.6497 32.0766 87.8147C32.6469 88.0932 33.2132 88.3488 33.7755 88.5813ZM35.6734 87.2515L35.0044 87.0852L35.6734 87.2515ZM64.3811 79.0621C64.3406 78.8323 64.3609 78.5444 64.4421 78.1984C64.5232 77.8524 64.5314 77.4955 64.4666 77.1279C64.4099 76.0006 64.3641 75.2031 64.329 74.7354C64.2858 74.2218 64.2318 73.7811 64.167 73.4135C63.8267 71.4832 63.3931 69.4273 62.8662 67.2456C62.3772 65.0099 61.8815 62.8702 61.3789 60.8264C61.2655 60.183 61.1088 59.4287 60.9089 58.5636C60.7549 57.6904 60.5874 57.0092 60.4063 56.5198C60.2606 54.887 60.0959 53.2812 59.9123 51.7024C59.7287 50.1237 59.4951 48.53 59.2114 46.9215L58.9076 45.1981C58.8022 44.6006 58.6739 44.0072 58.5226 43.4179C58.6848 43.5315 58.8348 43.5761 58.9727 43.5518C59.1565 43.5194 59.3282 43.418 59.4877 43.2477C59.6932 43.0693 59.8878 42.9639 60.0717 42.9315C60.3934 42.8748 60.7069 43.1749 61.0123 43.8319C61.3636 44.4807 61.7459 45.977 62.1592 48.3209L62.7797 48.2115C62.5556 45.5973 62.5397 43.4914 62.7319 41.8938C62.97 40.2881 63.3418 39.4406 63.8474 39.3515C64.0771 39.311 64.5339 39.7517 65.2178 40.6736C65.8935 41.5496 66.4177 43.0446 66.7905 45.1586L67.33 43.7841C67.7302 43.0975 68.1723 42.3798 68.6563 41.6311C69.1862 40.8742 69.7973 40.1741 70.4894 39.5308C71.1815 38.8875 71.9818 38.3199 72.8902 37.8281C73.7905 37.2902 74.861 36.9119 76.1019 36.6931C78.4917 36.2717 80.657 36.4586 82.5979 37.2536C84.5767 37.9946 86.3174 39.1329 87.8203 40.6686C89.315 42.1584 90.6245 43.9414 91.7488 46.0177C92.911 48.04 93.8974 50.1406 94.7081 52.3196C95.5107 54.4526 96.1632 56.541 96.6658 58.5848C97.1683 60.6286 97.5492 62.3858 97.8085 63.8565C98.0435 65.1892 98.0934 66.0097 97.9582 66.3179C97.8609 66.572 97.6094 66.7585 97.2039 66.8774C96.488 63.3548 95.6221 59.7877 94.6062 56.1759C93.5902 52.5641 92.089 49.1563 90.1025 45.9526C91.9835 49.3645 93.3969 52.8114 94.3426 56.2934C95.3261 59.7214 96.1299 63.2047 96.7538 66.7435C96.4538 66.6542 96.1889 66.6299 95.9591 66.6704C95.7752 66.7028 95.6265 66.8001 95.513 66.9623C95.5778 67.3299 95.6697 67.7165 95.7886 68.122C95.8994 68.4816 95.9872 68.8452 96.052 69.2129C96.1628 69.5724 96.2465 69.9131 96.3033 70.2348C96.2139 71.3404 96.0719 72.1473 95.8771 72.6555C95.6824 73.1637 95.4702 73.4381 95.2404 73.4786C94.9646 73.5272 94.7146 73.4529 94.4903 73.2555C94.2578 73.0121 94.0172 72.7229 93.7686 72.3876C93.5659 72.0443 93.3362 71.682 93.0794 71.3008C92.8605 70.8655 92.5767 70.4654 92.228 70.1004C92.1822 69.3029 92.1417 68.6703 92.1066 68.2026C92.0634 67.689 92.0135 67.2713 91.9568 66.9496C91.738 65.7088 91.4516 64.2192 91.0977 62.4809C90.7438 60.7426 90.2859 58.9516 89.7238 57.1078C89.1996 55.21 88.5416 53.3595 87.7498 51.5563C86.9959 49.699 86.0986 48.1039 85.058 46.771C84.0552 45.3841 82.8984 44.3323 81.5873 43.6158C80.2682 42.8532 78.8044 42.6138 77.1959 42.8974C76.0929 43.0919 75.1696 43.6338 74.4261 44.5231C73.7285 45.4043 73.1593 46.4761 72.7185 47.7384C72.3236 48.9927 72.018 50.3498 71.8015 51.8095C71.5769 53.2233 71.4362 54.575 71.3792 55.8645C71.5659 54.5047 71.7486 53.122 71.9272 51.7163C72.1518 50.3025 72.4656 48.9914 72.8685 47.7831C73.3175 46.5666 73.8948 45.5408 74.6004 44.7056C75.298 43.8244 76.1983 43.2865 77.3013 43.0921C78.726 42.8408 80.0127 43.0167 81.1616 43.6197C82.3564 44.2146 83.4078 45.0717 84.316 46.1911C85.2701 47.3023 86.0958 48.6256 86.793 50.1612C87.5281 51.6428 88.1564 53.1905 88.678 54.8045C89.1914 56.3725 89.6088 57.9337 89.9303 59.4881C90.2896 60.9885 90.5665 62.2902 90.761 63.3932C90.915 64.2664 91.046 65.1437 91.154 66.025C91.308 66.8982 91.443 67.7984 91.5591 68.7256C90.8376 67.0522 90.1958 65.2936 89.6337 63.4498C89.1096 61.552 88.5705 59.7042 88.0166 57.9064C87.4545 56.0627 86.8398 54.323 86.1723 52.6874C85.5426 50.9977 84.7765 49.4743 83.8737 48.1171L84.2347 47.3427C83.5888 46.3667 82.9184 45.6556 82.2238 45.2095C81.5669 44.7092 80.9384 44.3699 80.3383 44.1914C79.7382 44.0129 79.2043 43.9412 78.7366 43.9762C78.269 44.0113 77.9662 44.041 77.8283 44.0653C76.6794 44.2679 75.7182 44.8639 74.945 45.8532C74.2176 46.8344 73.6349 48.0981 73.1967 49.6444C72.7964 51.1365 72.5056 52.8463 72.3242 54.7738C72.1428 56.7012 72.0466 58.7085 72.0354 60.7954C72.0243 62.8824 72.0632 64.9842 72.1522 67.1009C72.233 69.1717 72.3395 71.1195 72.4717 72.9442L73.0921 72.8348C73.0464 71.2318 72.9723 69.4678 72.8698 67.543C72.8133 65.6102 72.7528 63.6543 72.6882 61.6754C72.6614 59.6425 72.6928 57.6705 72.7823 55.7592C72.8717 53.848 73.0626 52.1084 73.3547 50.5405C73.6929 48.9645 74.1716 47.6481 74.7908 46.5912C75.3721 45.5883 76.1792 44.9248 77.2119 44.6005C76.2413 45.0086 75.5046 45.8019 75.0016 46.9805C74.4607 48.2131 74.0564 49.6823 73.7885 51.3881C73.5206 53.0938 73.3271 54.9524 73.2079 56.9636C73.1265 58.9208 73.056 60.805 72.9962 62.6162L73.3922 72.9241C73.3218 73.5999 73.2852 74.1987 73.2824 74.7204L73.262 76.2167C73.2511 76.6925 73.2483 77.2142 73.2536 77.7819C73.2509 78.3037 73.2413 78.9214 73.225 79.6351L73.164 80.4988L72.7504 80.5717L65.3746 79.4556C65.1367 79.4501 64.9407 79.4136 64.7866 79.346C64.6785 79.2703 64.5433 79.1757 64.3811 79.0621ZM70.1404 41.5826C69.359 42.526 68.7736 43.5058 68.3842 44.5222C68.0326 45.4846 67.7081 46.4658 67.4106 47.466L67.4227 47.535C67.8311 46.0887 68.4882 44.575 69.3941 42.9936C70.2702 41.5123 71.5706 40.2879 73.2955 39.3204C72.7304 39.6095 72.1884 39.8947 71.6693 40.1757C71.0664 40.519 70.5568 40.9879 70.1404 41.5826ZM78.0116 37.8491C77.7738 37.8436 77.448 37.8774 77.0344 37.9503C78.5699 38.0586 80.0215 38.2292 81.3894 38.4618C82.7491 38.6485 84.1169 39.284 85.4928 40.3682C84.5251 39.449 83.3452 38.8041 81.953 38.4335C80.6068 38.0549 79.293 37.86 78.0116 37.8491ZM81.2586 45.3796C80.8424 45.1687 80.3693 45.0389 79.8395 44.9902C79.3475 44.8874 78.7325 44.7589 77.9945 44.6047L77.9012 44.479C78.6906 44.3871 79.4124 44.4494 80.0666 44.6658C80.7126 44.8362 81.3763 45.2404 82.0574 45.8785L81.2586 45.3796ZM85.6549 40.4818C86.4361 41.1496 87.1916 41.9405 87.9213 42.8543C88.6511 43.7681 89.2917 44.5792 89.8431 45.2876C89.1971 44.3116 88.5903 43.4234 88.0228 42.6232C87.4552 41.8229 86.6659 41.1091 85.6549 40.4818Z" fill="#E66A1B"/>
</svg>
